<svg id="ae98eaab-42bb-4b9c-ad47-11ea24753def" data-name="svg8" xmlns="http://www.w3.org/2000/svg" viewBox="0 0 187.78 190.62">
  <defs>
    <style>
      .a8af3d1d-5c4a-4d1e-92af-f0f8ede29090 {
        fill: #34a668;
      }

      .\34 9f1d40d-9e04-44bd-8abe-79cd7497964d {
        fill: #5c88c5;
      }

      .beff808c-661c-4316-a5a6-cde80712a2fc {
        fill: #dd4b3e;
      }

      .\30 5a80247-ccd8-4c1b-8b51-b0eb972b0f15 {
        fill: #802d27;
      }

      .\30 7027990-c60c-4382-9e99-defad0abbe5c {
        fill: #fff;
      }

      .cf6e7b1a-1a7e-4717-a446-7188ed64ee2e {
        fill: #c3c3c3;
      }

      .\37 bbaf77b-1155-4629-80a0-b7c67d88608a {
        fill: #fddc4f;
      }
    </style>
  </defs>
  <title>GoogleMaps_logo</title>
  <g id="18fba934-2c77-4d74-acff-784f44f4a230" data-name="layer1">
    <g id="0e822886-9b24-435e-bd21-9c92ed47a6e4" data-name="g5035">
      <rect id="4a46aacf-7ba7-4a56-b4f0-3cbf58a87ae9" data-name="rect1235" class="a8af3d1d-5c4a-4d1e-92af-f0f8ede29090" y="23.65" width="166.97" height="166.97" rx="14.55" ry="14.55"/>
      <path id="a081709a-d501-47d6-ac09-a2a6b3bee662" data-name="path5000" class="49f1d40d-9e04-44bd-8abe-79cd7497964d" d="M84.59,105.61,4.05,186.15a14.5,14.5,0,0,0,10.51,4.47H152.42A14.52,14.52,0,0,0,163.94,185Z"/>
      <path id="e1d446ac-f09e-46c5-8805-f2091fecaced" data-name="ellipse1239" class="beff808c-661c-4316-a5a6-cde80712a2fc" d="M140.89.28c-25.74,0-46.61,19.92-46.61,44.5a42.66,42.66,0,0,0,5.81,21.87h0c1.2,2,2.31,3.92,3.31,5.86q1.39,2.08,2.64,4.19c.95,1.32,1.87,2.66,2.74,4,3.64,4.91,7,9.73,10.11,14.36,2.2,3.54,4.68,7.33,6.85,11.08,6.57,11.38,11.13,22.48,12.78,38.66v0a2.82,2.82,0,0,0,2.44,1.86,2.94,2.94,0,0,0,2.59-2.22c1.67-16,6.21-27,12.74-38.33,2.17-3.75,4.64-7.54,6.85-11.08,3.15-4.63,6.46-9.45,10.1-14.36.88-1.34,1.79-2.68,2.75-4s1.71-2.8,2.64-4.19c1-1.94,2.11-3.9,3.3-5.86h0a42.43,42.43,0,0,0,5.57-21.87c0-24.58-20.87-44.5-46.61-44.5Z"/>
      <ellipse id="389e7860-8df2-4884-bbda-926556e365e0" data-name="path1237" class="05a80247-ccd8-4c1b-8b51-b0eb972b0f15" cx="140.89" cy="44.78" rx="16.19" ry="15.46"/>
      <path id="d4cf81f0-8d00-4256-a8ea-cbcedaff7ea9" data-name="path1241" class="07027990-c60c-4382-9e99-defad0abbe5c" d="M39.65,40a23.91,23.91,0,0,0,0,47.82c8.45,0,13.35-2.66,17.6-7s5.8-10.87,5.8-17.47a24.91,24.91,0,0,0-.18-3H39.93v8.45H53.41a12.11,12.11,0,0,1-2.94,5.52c-2.62,2.66-5.63,4.3-10.84,4.3a14.72,14.72,0,0,1,0-29.44,14.22,14.22,0,0,1,10,3.59l6.61-6.62h0C51.78,41.92,46.14,40,39.65,40ZM52,55.72v0h0Z"/>
      <path id="3cd6c361-8c0d-41e9-a843-e666a9533d4b" data-name="path5005" class="cf6e7b1a-1a7e-4717-a446-7188ed64ee2e" d="M108.78,80.69,86.61,102.86,165.73,182a14.63,14.63,0,0,0,1.24-5.9V89.49c-1.3,1.87-2.59,3.74-3.83,5.57-2.21,3.54-4.68,7.33-6.85,11.08-6.53,11.3-11.07,22.34-12.74,38.33a2.94,2.94,0,0,1-2.59,2.22,2.82,2.82,0,0,1-2.44-1.86v0c-1.65-16.18-6.21-27.28-12.78-38.66-2.17-3.75-4.65-7.54-6.85-11.08-3.16-4.63-6.47-9.45-10.1-14.36Z"/>
      <path id="e3725310-289b-4a6f-af2a-bde26b3a003c" data-name="rect4969" class="7bbaf77b-1155-4629-80a0-b7c67d88608a" d="M102.67,71.15,0,173.82v2.25a14.52,14.52,0,0,0,14.56,14.55h2.81l99.09-99.09C114,88,111.52,84.39,108.78,80.7c-.87-1.34-1.79-2.68-2.74-4s-1.71-2.8-2.64-4.19c-.23-.45-.49-.91-.73-1.36Z"/>
      <path id="90e3b66b-2193-453d-9097-c0f799f58286" data-name="path4980" class="07027990-c60c-4382-9e99-defad0abbe5c" d="M101.32,106.43,84.59,123.62,150,191l2.72.44A14.41,14.41,0,0,0,167,176.8v-2.92Z"/>
    </g>
  </g>
</svg>
