<svg id="eb7efc25-b6c5-44c5-b7d1-caa61998f4ce" data-name="Layer 1" xmlns="http://www.w3.org/2000/svg" viewBox="0 0 640 640">
  <defs>
    <style>
      .\31 e4ff474-1df5-49f7-8d16-fa77df54e2df {
        fill: #FCD117;
      }

      .\30 2830887-83ac-4e34-80d2-0ad520a94aa0, .\32 efe9ac5-1ca1-4d71-838d-5bca74abf6a7 {
        font-size: 144.72px;
        fill: #FCD117;
      }

      .\32 efe9ac5-1ca1-4d71-838d-5bca74abf6a7 {
        font-family: Arial-BoldMT, Arial;
        font-weight: 700;
      }

      .\30 2830887-83ac-4e34-80d2-0ad520a94aa0 {
        font-family: ArialMT, Arial;
      }
    </style>
  </defs>
  <title>obd2</title>
  <g id="74cb85ed-06e1-45bd-a0db-777a0e05f035" data-name="layer102">
    <path class="1e4ff474-1df5-49f7-8d16-fa77df54e2df" d="M206.53,473.75l-35.11-34.84H97.32L83.78,424.57,70.25,410.1V325H54.17v81.87l-16.48-.4-16.35-.4-.4-96.48c-.14-53.07,0-97,.26-97.83s6.71-1.2,16.76-.93l16.21.4v80.27H70.25V238.44L84.86,224l14.6-14.34,18.9.27,18.76.13,3.35-3.88c1.87-2,8.17-9.25,13.8-16.08l10.45-12.33H196L227,177.6V164.2H182.81V143.3l6.44-6.3,6.43-6.3H371.76v33.5H327.4l.41,6.3.4,6.43,42.34.67,42.21.67,14.34,13.4,14.34,13.4v31.49l25.19.27,25.06.4.4,20.51.41,20.37h13.26V236.56h81.08L602,266.45l15,29.88V420.42l-15,29.34-15.14,29.35H505.76V437.57H488.34v41l-15.14,15-15.28,15H241.64Zm242.82-3.21,4.29-4.43.13-19.29v-19.3l11.52-11.66,11.53-11.79h62.44v41.67l13.54-.4,13.67-.4,8.44-16.08,8.58-16.08V303.83L574.64,287l-8.84-16.88H539.26v41.54H468.78l-5-5.1L459,301.56l-.41-15.41-.4-15.41-25.06-.41-25.19-.26V221.15l-4.15-5.09-4-5H180.4l-14.34,16.75-14.34,16.76h-41l-3.48,4.15-3.49,4.15V397.1l3.49,4.16,3.48,4.15h75.44L221,440.25l34.85,34.84H444.93Z"/>
  </g>
  <text class="2efe9ac5-1ca1-4d71-838d-5bca74abf6a7" transform="translate(88.66 105.62)">OBD II</text>
  <text class="02830887-83ac-4e34-80d2-0ad520a94aa0" transform="translate(12.29 638.17)">READER</text>
</svg>
